<?xml version="1.0" encoding="iso-8859-1"?>
<!-- Generator: Adobe Illustrator 19.0.0, SVG Export Plug-In . SVG Version: 6.00 Build 0)  -->
<svg xmlns="http://www.w3.org/2000/svg" xmlns:xlink="http://www.w3.org/1999/xlink" version="1.1" x="0px" y="0px" viewBox="0 0 512 512" style="enable-background:new 0 0 512 512;" xml:space="preserve">
<g>
	<path d="M136.53,207.562c0.446,0.08,0.89,0.118,1.327,0.118c3.564,0,6.726-2.552,7.375-6.183   c6.598-36.951,26.111-70.729,54.946-95.113c29.17-24.667,66.308-38.252,104.571-38.252c40.815,0,79.809,15.224,109.798,42.867   c3.044,2.808,7.791,2.614,10.598-0.432s2.614-7.79-0.432-10.598c-32.767-30.204-75.372-46.838-119.964-46.838   c-41.804,0-82.381,14.844-114.257,41.798c-31.498,26.635-52.816,63.545-60.027,103.93   C129.737,202.938,132.452,206.834,136.53,207.562z"/>
	<path d="M395.017,329.524c1.897,0,3.797-0.716,5.257-2.151c26.279-25.831,40.752-60.348,40.752-97.193   c0-75.144-61.134-136.278-136.278-136.278c-30.819,0-61.021,10.578-85.044,29.787c-23.652,18.912-40.526,45.458-47.516,74.75   c-0.961,4.029,1.526,8.075,5.555,9.036c4.032,0.962,8.075-1.525,9.036-5.555c6.218-26.059,21.238-49.681,42.293-66.517   c21.683-17.338,47.852-26.502,75.676-26.502c66.873,0,121.278,54.405,121.278,121.278c0,32.789-12.88,63.507-36.267,86.496   c-2.954,2.903-2.995,7.652-0.091,10.606C391.137,328.775,393.076,329.524,395.017,329.524z"/>
	<path d="M367.008,334.279c-18.747,11.238-40.276,17.178-62.26,17.178c-33.428,0-64.563-13.311-87.672-37.481   c-2.862-2.994-7.609-3.101-10.604-0.238c-2.994,2.862-3.101,7.61-0.238,10.604c25.965,27.158,60.952,42.115,98.514,42.115   c24.7,0,48.896-6.678,69.972-19.313c3.553-2.129,4.707-6.736,2.577-10.289C375.168,333.303,370.561,332.148,367.008,334.279z"/>
	<path d="M304.748,139.704c-18.697,0-36.643,5.656-51.899,16.357c-14.907,10.456-26.202,24.94-32.665,41.888   c-1.476,3.87,0.465,8.204,4.335,9.68c3.87,1.478,8.205-0.465,9.68-4.335c11.083-29.063,39.434-48.59,70.548-48.59   c41.617,0,75.476,33.858,75.476,75.475s-33.858,75.476-75.476,75.476c-15.522,0-30.43-4.673-43.111-13.515   c-12.404-8.648-21.838-20.637-27.283-34.672c-1.498-3.861-5.843-5.777-9.705-4.279c-3.861,1.498-5.777,5.843-4.279,9.705   c6.527,16.823,17.83,31.191,32.688,41.55c15.21,10.605,33.084,16.211,51.69,16.211c49.888,0,90.476-40.587,90.476-90.476   S354.637,139.704,304.748,139.704z"/>
	<path d="M120.319,294.523c-3.664-1.934-8.201-0.528-10.132,3.136c-10.091,19.14-23.911,45.353-5.271,71.411   c1.427,1.995,3.713,3.137,6.1,3.137c0.549,0,1.104-0.061,1.655-0.186c2.943-0.666,5.201-3.031,5.729-6.002   c1.514-8.514,8.798-18.489,22.206-30.367c9.176,13.464,21.644,24.868,38.622,35.423c3.039,1.889,6.986,1.369,9.432-1.241   c2.446-2.609,2.709-6.583,0.628-9.492c-13.336-18.643-3.311-37.522,8.297-59.383c10.34-19.473,21.84-41.151,13.625-63.282h51.721   c3.553,19.865,20.946,34.995,41.817,34.995c23.431,0,42.494-19.063,42.494-42.494s-19.063-42.494-42.494-42.494   c-20.87,0-38.262,15.128-41.817,34.992H113.867L79.721,197.25c-1.294-0.964-2.865-1.485-4.479-1.485H7.5   c-3.057,0-5.809,1.856-6.954,4.69c-1.145,2.835-0.455,6.081,1.744,8.205c5.898,5.696,9.147,13.338,9.147,21.52   c0,8.182-3.249,15.824-9.146,21.519c-2.2,2.124-2.89,5.37-1.745,8.205c1.146,2.835,3.896,4.691,6.954,4.691h67.741   c1.614,0,3.185-0.521,4.479-1.485l34.151-25.431h8.604c5.668,9.724,5.769,20.11,0.451,33.965c-1.484,3.867,0.447,8.206,4.314,9.69   c3.865,1.483,8.205-0.448,9.689-4.314c3.859-10.053,7.708-24.167,2.098-39.34h55.631c10.182,17.631,0.635,35.61-10.322,56.246   c-8.297,15.625-17.349,32.67-16.356,50.23c-7.978-7.166-14.203-14.884-19.047-23.522c-1.084-1.932-2.966-3.286-5.143-3.7   c-2.177-0.41-4.424,0.158-6.141,1.558c-12.267,10.01-20.948,18.887-26.546,27.296c-1.776-12.667,4.358-25.971,12.352-41.133   C125.388,300.991,123.983,296.455,120.319,294.523z M304.748,202.686c15.16,0,27.494,12.333,27.494,27.494   s-12.333,27.494-27.494,27.494c-12.56,0-23.172-8.469-26.445-19.995h26.447c4.142,0,7.5-3.358,7.5-7.5s-3.358-7.5-7.5-7.5h-26.446   C281.578,211.154,292.189,202.686,304.748,202.686z M72.755,249.594H22.053c2.871-5.976,4.384-12.568,4.384-19.415   c0-6.846-1.513-13.439-4.384-19.415h50.702l26.071,19.415L72.755,249.594z"/>
	<path d="M504.5,443.863h-53.2l-41.456-71.217c45.173-33.355,71.947-86.089,71.947-142.469c0-38.807-12.322-75.65-35.633-106.547   c-2.494-3.306-7.197-3.964-10.504-1.47c-3.307,2.495-3.965,7.198-1.47,10.504c21.332,28.273,32.607,61.993,32.607,97.513   c0,53.746-26.574,103.887-71.089,134.129c-10.63,7.233-22.116,13.165-34.149,17.671c-0.38,0.142-0.756,0.297-1.138,0.436   c0,0-0.001,0-0.001,0c-0.001,0-0.001,0-0.002,0.001c-17.781,6.511-36.508,9.813-55.661,9.813c-19.126,0-37.855-3.302-55.664-9.813   c-12.421-4.543-24.298-10.64-35.328-18.138c-2.229-1.501-4.558-3.174-7.117-5.114c-3.301-2.504-8.004-1.856-10.507,1.444   s-1.856,8.005,1.444,10.508c0.7,0.531,1.385,1.044,2.058,1.541l-41.446,71.208h-53.194c-4.142,0-7.5,3.358-7.5,7.5   s3.358,7.5,7.5,7.5h57.43c0.025,0,0.049,0.005,0.073,0.005h54.31c0.023,0,0.045-0.005,0.068-0.005h175.733   c0.023,0,0.045,0.005,0.068,0.005h54.31c0.025,0,0.049-0.005,0.073-0.005H504.5c4.142,0,7.5-3.358,7.5-7.5   S508.642,443.863,504.5,443.863z M397.399,443.863l-24.158-50.375c0.631-0.265,1.257-0.541,1.885-0.813   c0.259-0.112,0.519-0.222,0.777-0.335c1.445-0.635,2.881-1.292,4.309-1.965c0.3-0.141,0.598-0.285,0.897-0.429   c1.42-0.68,2.833-1.373,4.235-2.091c0.049-0.025,0.098-0.049,0.147-0.074c1.435-0.737,2.856-1.499,4.271-2.275   c0.302-0.165,0.603-0.331,0.904-0.498c1.384-0.77,2.759-1.555,4.121-2.361c0.206-0.122,0.411-0.248,0.617-0.371   c0.665-0.398,1.331-0.793,1.991-1.2l36.55,62.787H397.399z M359.112,398.716l21.651,45.147H228.729l21.659-45.15   c17.515,5.648,35.768,8.515,54.362,8.515C323.367,407.228,341.62,404.361,359.112,398.716z M212.108,381.047   c7.734,4.76,15.815,8.915,24.16,12.421l-24.175,50.395h-36.546L212.108,381.047z"/>
</g>
</svg>
