<svg viewBox="0 -9 512.00092 512" xmlns="http://www.w3.org/2000/svg"><path d="m243.273438 147.371094c-4.140626 0-7.5 3.359375-7.5 7.5v74.769531c0 4.144531 3.359374 7.5 7.5 7.5 4.144531 0 7.5-3.355469 7.5-7.5v-74.769531c0-4.140625-3.359376-7.5-7.5-7.5zm0 0"/><path d="m152.441406 383.160156 64.75-37.386718c3.589844-2.070313 4.816406-6.65625 2.746094-10.242188s-6.660156-4.816406-10.242188-2.746094l-64.753906 37.386719c-3.585937 2.070313-4.816406 6.65625-2.746094 10.242187 2.082032 3.605469 6.675782 4.808594 10.246094 2.746094zm0 0"/><path d="m383.484375 349.453125-64.753906-37.386719c-3.589844-2.070312-8.175781-.839844-10.246094 2.746094s-.839844 8.171875 2.746094 10.242188l64.753906 37.386718c1.179687.679688 2.46875 1.003906 3.742187 1.003906 2.589844 0 5.113282-1.34375 6.5-3.75 2.070313-3.585937.84375-8.171874-2.742187-10.242187zm0 0"/><path d="m63.074219 331.53125c.371093 0 .75-.027344 1.128906-.085938 4.097656-.617187 6.914063-4.4375 6.292969-8.535156-1.378906-9.132812-2.078125-18.472656-2.078125-27.757812 0-71.730469 41.214843-135.011719 103.09375-165.410156 3.71875-1.828126 5.253906-6.320313 3.425781-10.039063-1.824219-3.714844-6.316406-5.25-10.035156-3.425781-67.039063 32.929687-111.484375 101.449218-111.484375 178.875 0 10.035156.757812 20.125 2.25 30 .558593 3.714844 3.757812 6.378906 7.40625 6.378906zm0 0"/><path d="m170.335938 166.796875c-43.941407 28.21875-70.171876 76.203125-70.171876 128.355469 0 3.332031.117188 6.808594.355469 10.34375.273438 4.101562 3.8125 7.257812 7.980469 6.984375 4.132812-.277344 7.261719-3.855469 6.984375-7.984375-.214844-3.203125-.324219-6.347656-.324219-9.34375 0-47.023438 23.65625-90.289063 63.28125-115.738282 3.484375-2.238281 4.496094-6.875 2.257813-10.359374-2.238281-3.488282-6.878907-4.496094-10.363281-2.257813zm0 0"/><path d="m320.199219 123.789062c8.589843 3.398438 17.015625 7.492188 25.039062 12.160157 62.003907 36.074219 95.972657 103.523437 91.128907 172.296875-.292969 4.128906 2.820312 7.714844 6.953124 8.007812.179688.011719.355469.015625.535157.015625 3.898437 0 7.195312-3.019531 7.472656-6.972656 5.25-74.5-31.621094-147.375-98.546875-186.3125-8.671875-5.042969-17.773438-9.464844-27.0625-13.144531-3.851562-1.523438-8.210938.363281-9.734375 4.214844-1.523437 3.851562.363281 8.207031 4.214844 9.734374zm0 0"/><path d="m313.492188 171.933594c2.867187 1.421875 5.640624 2.90625 8.234374 4.417968 40.648438 23.648438 66.148438 65.855469 68.21875 112.902344.175782 4.023438 3.496094 7.167969 7.484376 7.167969.113281 0 .226562 0 .335937-.007813 4.140625-.179687 7.34375-3.683593 7.164063-7.820312-2.296876-52.171875-30.578126-98.976562-75.660157-125.207031-2.882812-1.675781-5.953125-3.324219-9.117187-4.890625-3.710938-1.839844-8.210938-.320313-10.050782 3.386718-1.839843 3.710938-.320312 8.210938 3.390626 10.050782zm0 0"/><path d="m371.164062 436.148438c-7.078124 5.9375-14.6875 11.398437-22.609374 16.234374-61.472657 37.511719-136.953126 35-194.902344-1.839843-3.492188-2.222657-8.132813-1.191407-10.351563 2.304687-2.222656 3.496094-1.191406 8.128906 2.304688 10.351563 63.878906 40.613281 145.515625 41.800781 210.761719 1.984375 8.5625-5.222656 16.78125-11.125 24.4375-17.542969 3.171874-2.664063 3.585937-7.390625.925781-10.566406-2.660157-3.171875-7.390625-3.589844-10.566407-.925781zm0 0"/><path d="m332.015625 425.285156c2.855469-1.738281 5.761719-3.65625 8.648437-5.695312 3.382813-2.386719 4.1875-7.066406 1.796876-10.449219-2.390626-3.382813-7.066407-4.1875-10.453126-1.800781-2.609374 1.847656-5.234374 3.574218-7.804687 5.140625-40.136719 24.5-89.390625 26.84375-131.757813 6.273437-3.726562-1.808594-8.214843-.253906-10.023437 3.472656-1.808594 3.722657-.253906 8.210938 3.472656 10.019532 46.933594 22.789062 101.5625 20.230468 146.121094-6.960938zm0 0"/><path d="m506.246094 418.738281-153.742188-142.207031c-1.605468-1.488281-3.773437-2.199219-5.953125-1.945312l-45.195312 5.210937c-1.582031-5-3.917969-9.667969-6.863281-13.875l-6.4375-176.585937c-.148438-4.136719-3.628907-7.382813-7.765626-7.21875-4.140624.148437-7.371093 3.628906-7.222656 7.765624l5.882813 161.445313c-15.636719-9.433594-35.507813-9.710937-51.355469-.75l-24.09375-32.464844 45.523438-200.886719c.296874-1.3125 1.445312-2.226562 2.789062-2.226562h15.765625c1.546875 0 2.800781 1.210938 2.859375 2.753906l1.707031 46.886719c.152344 4.140625 3.652344 7.359375 7.769531 7.21875 4.136719-.148437 7.371094-3.625 7.222657-7.765625l-1.710938-46.886719c-.351562-9.648437-8.191406-17.207031-17.847656-17.207031h-15.765625c-8.398438 0-15.5625 5.722656-17.414062 13.910156l-46.285157 204.25c-.484375 2.132813-.011719 4.371094 1.289063 6.125l26.355468 35.511719c-7.160156 7.457031-12.089843 17.070313-13.6875 27.757813l-193.675781 121.4375c-8.183593 5.128906-10.808593 15.699218-5.980469 24.058593l7.882813 13.65625c3.273437 5.664063 9.167969 8.941407 15.40625 8.941407 1.773437 0 3.574219-.265626 5.351563-.816407l45.554687-14.128906c3.957031-1.226563 6.171875-5.429687 4.941406-9.382813-1.226562-3.957031-5.425781-6.167968-9.382812-4.941406l-45.558594 14.128906c-1.28125.398438-2.652344-.136718-3.324219-1.300781l-7.882812-13.65625c-.773438-1.335937-.351563-3.027343.957031-3.851562l186.105469-116.6875c3.703125 18.878906 17.835937 34.054687 36.125 39.28125l-15.246094 35.195312-123.925781 38.4375c-3.957031 1.226563-6.167969 5.425781-4.941407 9.382813 1.226563 3.957031 5.429688 6.167968 9.386719 4.941406l127.21875-39.457031c2.085938-.648438 3.789063-2.175781 4.660157-4.183594l18.359374-42.386719c1.921876-.054687 3.816407-.214844 5.679688-.476562l218.09375 115.535156c2.683594 1.421875 5.558594 2.101562 8.390625 2.101562 6.167969 0 12.125-3.21875 15.433594-8.949218l7.886719-13.65625c4.195312-7.273438 2.824218-16.335938-3.339844-22.039063zm-253.636719-87.476562c-20.011719 0-36.109375-16.453125-36.109375-36.109375 0-19.941406 16.238281-36.105469 36.109375-36.105469 19.875 0 36.105469 16.195313 36.105469 36.105469 0 19.675781-15.972656 36.109375-36.105469 36.109375zm243.984375 102.015625-7.882812 13.65625c-.769532 1.335937-2.441407 1.820312-3.8125 1.09375l-205.929688-109.089844c15.308594-9.246094 24.945312-26.113281 24.742188-44.3125l41.136718-4.746094 151.214844 139.871094c.984375.914062 1.207031 2.363281.53125 3.527344zm0 0"/></svg>