<svg enable-background="new 0 0 512 512" viewBox="0 0 512 512" xmlns="http://www.w3.org/2000/svg"><g><path d="m456.907 161.731-36.977-14.932c-5.967-2.408-12.25-3.628-18.678-3.628-.03 0-.06 0-.09 0l-24.136.04-20.518-19.911c5.611-3.677 9.33-10.01 9.33-17.204 0-11.34-9.227-20.567-20.567-20.567h-26.483c-.377 0-.745.037-1.107.091l-83.802-81.325c-2.83-2.748-6.562-4.263-10.51-4.267l-42.989-.028c-.002 0-.004 0-.005 0-3.635 0-7.013 1.96-8.815 5.118-1.804 3.158-1.774 7.065.075 10.194l75.651 128.099-41.77.065c-1.196.001-2.404.092-3.59.27-.059.009-.118.018-.177.029l-70.077 12.26-49.75-37.177c-2.049-1.533-4.583-2.376-7.139-2.376-.008 0-.016 0-.023 0l-24.191.042c-3.835.008-7.347 2.111-9.164 5.488s-1.637 7.465.468 10.667l34.021 51.798-33.842 51.918c-2.094 3.213-2.258 7.302-.427 10.673 1.827 3.363 5.337 5.45 9.161 5.45h.021l24.19-.042c2.566-.005 5.106-.857 7.149-2.397l49.624-37.352 70.119 12.016c.061.011.123.02.185.029 1.18.171 2.397.244 3.577.257l41.861-.065-37.682 63.807c-6.849-3.421-10.843-6.886-12.607-8.651-1.956-1.955-3.795-4.086-5.467-6.335-3.195-4.301-8.101-6.773-13.46-6.787-.015 0-.028 0-.042 0-5.355 0-10.271 2.457-13.49 6.745-1.672 2.226-3.536 4.371-5.544 6.377-6.604 6.605-22.881 17.722-57.691 17.975l-11.326.082c-6.876.05-12.471 5.685-12.471 12.562v40.948c0 4.109 3.33 7.439 7.439 7.439s7.439-3.33 7.439-7.439v-38.647l9.027-.066c40.116-.292 59.888-14.117 68.103-22.331 2.501-2.501 4.829-5.181 6.922-7.967.521-.694 1.22-.8 1.593-.8h.005c.445.002 1.075.139 1.556.786 2.104 2.828 4.421 5.513 6.886 7.979 6.615 6.614 26.491 22.031 68.105 22.333l9.027.066v73.838c0 14.933-3.471 29.913-10.038 43.322s-16.273 25.336-28.07 34.493l-37.26 28.918c-2.961 2.297-6.503 3.511-10.245 3.511s-7.284-1.214-10.243-3.51l-37.261-28.919c-11.796-9.156-21.503-21.083-28.07-34.493-6.566-13.409-10.038-28.389-10.038-43.322 0-4.109-3.33-7.439-7.439-7.439s-7.439 3.33-7.439 7.439c0 17.188 3.995 34.432 11.554 49.866 7.559 15.435 18.731 29.163 32.308 39.702l37.262 28.919c5.513 4.278 12.39 6.635 19.364 6.635s13.852-2.357 19.366-6.636l37.261-28.918c13.578-10.538 24.749-24.267 32.308-39.702s11.554-32.678 11.554-49.866v-76.137c0-6.877-5.595-12.511-12.471-12.562l-11.326-.082c-12.598-.091-22.805-1.715-30.964-3.98l40.855-69.179 91.634-.143-61.47 59.654c-2.947 2.861-3.018 7.57-.157 10.519 1.459 1.502 3.398 2.258 5.339 2.258 1.866 0 3.735-.698 5.18-2.101l10.856-10.535h29.081c11.34 0 20.567-9.226 20.567-20.566 0-7.553-4.105-14.151-10.19-17.727l22.191-21.535 23.463-.037c6.462-.012 12.773-1.254 18.756-3.695l36.925-15.059c9.181-3.745 14.875-12.23 14.857-22.145-.011-9.916-5.734-18.383-14.927-22.095zm-111.636 96.602c3.137 0 5.69 2.552 5.69 5.69 0 3.136-2.552 5.689-5.69 5.689h-13.751l11.724-11.378h2.027zm0-157.927c3.137 0 5.69 2.552 5.69 5.69 0 3.137-2.552 5.69-5.69 5.69h-.629l-11.726-11.379h12.355zm106.094 91.789-36.925 15.059c-4.2 1.712-8.628 2.585-13.163 2.593l-195.645.306c-.003 0-.007 0-.01 0-.442 0-.886-.03-1.325-.09l-73.178-12.541c-2.016-.346-4.092.156-5.73 1.389l-51.403 38.691-14.976.025 32.007-49.102c1.615-2.477 1.609-5.675-.015-8.146l-32.177-48.991 14.975-.025 51.538 38.513c1.643 1.226 3.719 1.72 5.734 1.369l73.138-12.796c.438-.062.882-.093 1.325-.094l113.263-.177c4.109-.007 7.434-3.342 7.427-7.45-.007-4.105-3.336-7.427-7.439-7.427-.004 0-.008 0-.012 0l-54.228.085-75.886-128.503 34.698.022c.06 0 .116.022.159.064l132.182 128.277-1.783.003c-4.108.007-7.433 3.343-7.426 7.451.007 4.104 3.336 7.426 7.439 7.426h.013l47.247-.078h.063c4.512 0 8.923.857 13.109 2.546l36.976 14.931c5.212 2.105 5.625 6.904 5.628 8.325 0 1.421-.396 6.222-5.6 8.345z"/><path d="m234.902 173.999c-5.325.003-9.639 4.323-9.635 9.648.003 5.325 4.323 9.639 9.648 9.635 5.325-.003 9.639-4.323 9.636-9.648-.004-5.325-4.324-9.639-9.649-9.635z"/><path d="m270.583 173.976c-5.325.003-9.639 4.323-9.635 9.648.003 5.325 4.323 9.639 9.648 9.635 5.325-.003 9.639-4.323 9.636-9.648-.004-5.324-4.323-9.638-9.649-9.635z"/><path d="m305.624 173.954c-5.325.003-9.639 4.323-9.636 9.648s4.323 9.639 9.648 9.635c5.325-.003 9.639-4.323 9.635-9.648-.003-5.325-4.322-9.639-9.647-9.635z"/><path d="m341.305 173.931c-5.325.003-9.639 4.323-9.635 9.648.003 5.325 4.323 9.639 9.648 9.635 5.325-.003 9.639-4.323 9.636-9.648-.005-5.324-4.324-9.638-9.649-9.635z"/><path d="m150.203 316.284c-10.855 3.962-22.954 6.715-35.961 8.183-5.408.611-9.486 5.179-9.486 10.628v51.148c0 27.281 12.36 52.522 33.911 69.248l32.996 25.608c1.932 1.501 4.247 2.251 6.562 2.251s4.629-.75 6.559-2.249l32.997-25.61c21.551-16.726 33.912-41.965 33.912-69.248v-51.148c0-5.45-4.08-10.02-9.487-10.628-13.006-1.467-25.105-4.221-35.96-8.183-7.22-2.635-13.734-5.768-19.359-9.314-5.262-3.318-12.062-3.317-17.324-.001-5.627 3.546-12.14 6.681-19.36 9.315zm28.749 3.271c6.519 4.109 13.986 7.71 22.193 10.706 10.908 3.98 22.892 6.847 35.67 8.534v47.448c0 22.652-10.262 43.608-28.157 57.495l-30.435 23.621-30.435-23.621c-17.894-13.888-28.156-34.843-28.156-57.495v-47.448c12.779-1.687 24.761-4.553 35.67-8.534 8.209-2.996 15.676-6.598 22.193-10.706.449-.283 1.008-.283 1.457 0z"/><path d="m145.068 374.175c-3.261 2.498-3.88 7.167-1.382 10.429l23.844 31.134c1.397 1.823 3.557 2.899 5.854 2.915h.051c2.278 0 4.431-1.044 5.843-2.835l43-54.567c2.543-3.226 1.989-7.904-1.239-10.446-3.224-2.543-7.904-1.988-10.446 1.239l-37.073 47.046-18.023-23.533c-2.497-3.26-7.164-3.879-10.429-1.382z"/></g></svg>